<mxfile host="app.diagrams.net" agent="Mozilla/5.0 (Windows NT 10.0; Win64; x64; rv:139.0) Gecko/20100101 Firefox/139.0" version="27.1.6">
  <diagram name="Seite-1" id="vKhFG0yD0sFM96mjJ53Z">
    <mxGraphModel dx="1375" dy="751" grid="1" gridSize="10" guides="1" tooltips="1" connect="1" arrows="1" fold="1" page="1" pageScale="1" pageWidth="827" pageHeight="1169" math="0" shadow="0">
      <root>
        <mxCell id="0" />
        <mxCell id="1" parent="0" />
        <mxCell id="20T_Re2GiVwvicuBMbkh-154" value="sampleSignalDCF77()" style="ellipse;whiteSpace=wrap;html=1;" parent="1" vertex="1">
          <mxGeometry x="110" y="40" width="120" height="80" as="geometry" />
        </mxCell>
        <mxCell id="20T_Re2GiVwvicuBMbkh-158" value="" style="endArrow=classic;html=1;rounded=0;exitX=0.5;exitY=1;exitDx=0;exitDy=0;entryX=0.5;entryY=0;entryDx=0;entryDy=0;" parent="1" source="20T_Re2GiVwvicuBMbkh-154" edge="1">
          <mxGeometry width="50" height="50" relative="1" as="geometry">
            <mxPoint x="390" y="140" as="sourcePoint" />
            <mxPoint x="170" y="160" as="targetPoint" />
          </mxGeometry>
        </mxCell>
        <mxCell id="Y51w3mguZFX1YrZZVSc8-1" value="" style="edgeStyle=orthogonalEdgeStyle;rounded=0;orthogonalLoop=1;jettySize=auto;html=1;" edge="1" parent="1" source="20T_Re2GiVwvicuBMbkh-161" target="20T_Re2GiVwvicuBMbkh-165">
          <mxGeometry relative="1" as="geometry" />
        </mxCell>
        <mxCell id="20T_Re2GiVwvicuBMbkh-161" value="readPort()" style="rounded=0;whiteSpace=wrap;html=1;" parent="1" vertex="1">
          <mxGeometry x="110" y="160" width="120" height="60" as="geometry" />
        </mxCell>
        <mxCell id="20T_Re2GiVwvicuBMbkh-165" value="signal != dcf77LastSignal" style="rhombus;whiteSpace=wrap;html=1;" parent="1" vertex="1">
          <mxGeometry x="130" y="270" width="80" height="80" as="geometry" />
        </mxCell>
        <mxCell id="20T_Re2GiVwvicuBMbkh-166" value="" style="endArrow=classic;html=1;rounded=0;exitX=1;exitY=0.5;exitDx=0;exitDy=0;" parent="1" source="20T_Re2GiVwvicuBMbkh-165" target="20T_Re2GiVwvicuBMbkh-167" edge="1">
          <mxGeometry width="50" height="50" relative="1" as="geometry">
            <mxPoint x="390" y="280" as="sourcePoint" />
            <mxPoint x="440" y="230" as="targetPoint" />
          </mxGeometry>
        </mxCell>
        <mxCell id="20T_Re2GiVwvicuBMbkh-167" value="signal == 0" style="rhombus;whiteSpace=wrap;html=1;" parent="1" vertex="1">
          <mxGeometry x="315" y="270" width="80" height="80" as="geometry" />
        </mxCell>
        <mxCell id="20T_Re2GiVwvicuBMbkh-168" value="" style="endArrow=classic;html=1;rounded=0;" parent="1" target="20T_Re2GiVwvicuBMbkh-169" edge="1">
          <mxGeometry width="50" height="50" relative="1" as="geometry">
            <mxPoint x="400" y="310" as="sourcePoint" />
            <mxPoint x="500" y="310" as="targetPoint" />
          </mxGeometry>
        </mxCell>
        <mxCell id="20T_Re2GiVwvicuBMbkh-169" value="setLED()" style="rounded=0;whiteSpace=wrap;html=1;" parent="1" vertex="1">
          <mxGeometry x="464" y="280" width="120" height="60" as="geometry" />
        </mxCell>
        <mxCell id="20T_Re2GiVwvicuBMbkh-170" value="" style="endArrow=classic;html=1;rounded=0;exitX=0.5;exitY=1;exitDx=0;exitDy=0;" parent="1" source="20T_Re2GiVwvicuBMbkh-167" target="20T_Re2GiVwvicuBMbkh-171" edge="1">
          <mxGeometry width="50" height="50" relative="1" as="geometry">
            <mxPoint x="390" y="580" as="sourcePoint" />
            <mxPoint x="440" y="530" as="targetPoint" />
          </mxGeometry>
        </mxCell>
        <mxCell id="20T_Re2GiVwvicuBMbkh-171" value="if signal in timeframe fo VALIDSEC" style="rhombus;whiteSpace=wrap;html=1;" parent="1" vertex="1">
          <mxGeometry x="315" y="460" width="80" height="80" as="geometry" />
        </mxCell>
        <mxCell id="20T_Re2GiVwvicuBMbkh-172" value="" style="endArrow=classic;html=1;rounded=0;exitX=1;exitY=0.5;exitDx=0;exitDy=0;" parent="1" source="20T_Re2GiVwvicuBMbkh-171" target="20T_Re2GiVwvicuBMbkh-174" edge="1">
          <mxGeometry width="50" height="50" relative="1" as="geometry">
            <mxPoint x="390" y="580" as="sourcePoint" />
            <mxPoint x="490" y="500" as="targetPoint" />
          </mxGeometry>
        </mxCell>
        <mxCell id="20T_Re2GiVwvicuBMbkh-173" value="" style="endArrow=classic;html=1;rounded=0;exitX=0.5;exitY=1;exitDx=0;exitDy=0;" parent="1" source="20T_Re2GiVwvicuBMbkh-171" target="20T_Re2GiVwvicuBMbkh-175" edge="1">
          <mxGeometry width="50" height="50" relative="1" as="geometry">
            <mxPoint x="390" y="580" as="sourcePoint" />
            <mxPoint x="355" y="610" as="targetPoint" />
          </mxGeometry>
        </mxCell>
        <mxCell id="20T_Re2GiVwvicuBMbkh-174" value="&amp;nbsp;event = VALIDSECOND" style="rounded=0;whiteSpace=wrap;html=1;" parent="1" vertex="1">
          <mxGeometry x="464" y="470" width="120" height="60" as="geometry" />
        </mxCell>
        <mxCell id="20T_Re2GiVwvicuBMbkh-175" value="if signal in timeframe fo VALIDMInute" style="rhombus;whiteSpace=wrap;html=1;" parent="1" vertex="1">
          <mxGeometry x="315" y="610" width="80" height="80" as="geometry" />
        </mxCell>
        <mxCell id="20T_Re2GiVwvicuBMbkh-176" value="" style="endArrow=classic;html=1;rounded=0;exitX=0.5;exitY=1;exitDx=0;exitDy=0;entryX=0.5;entryY=0;entryDx=0;entryDy=0;" parent="1" source="20T_Re2GiVwvicuBMbkh-175" target="20T_Re2GiVwvicuBMbkh-177" edge="1">
          <mxGeometry width="50" height="50" relative="1" as="geometry">
            <mxPoint x="390" y="680" as="sourcePoint" />
            <mxPoint x="355" y="730" as="targetPoint" />
          </mxGeometry>
        </mxCell>
        <mxCell id="20T_Re2GiVwvicuBMbkh-177" value="event = INVALID" style="rounded=0;whiteSpace=wrap;html=1;" parent="1" vertex="1">
          <mxGeometry x="295" y="730" width="120" height="60" as="geometry" />
        </mxCell>
        <mxCell id="20T_Re2GiVwvicuBMbkh-178" value="" style="endArrow=classic;html=1;rounded=0;exitX=1;exitY=0.5;exitDx=0;exitDy=0;" parent="1" source="20T_Re2GiVwvicuBMbkh-175" target="20T_Re2GiVwvicuBMbkh-179" edge="1">
          <mxGeometry width="50" height="50" relative="1" as="geometry">
            <mxPoint x="390" y="680" as="sourcePoint" />
            <mxPoint x="440" y="630" as="targetPoint" />
          </mxGeometry>
        </mxCell>
        <mxCell id="20T_Re2GiVwvicuBMbkh-179" value="event = VALIDMINUTE" style="rounded=0;whiteSpace=wrap;html=1;" parent="1" vertex="1">
          <mxGeometry x="465" y="620" width="120" height="60" as="geometry" />
        </mxCell>
        <mxCell id="20T_Re2GiVwvicuBMbkh-180" value="" style="endArrow=classic;html=1;rounded=0;exitX=0.5;exitY=1;exitDx=0;exitDy=0;entryX=0;entryY=0.5;entryDx=0;entryDy=0;" parent="1" source="20T_Re2GiVwvicuBMbkh-165" target="20T_Re2GiVwvicuBMbkh-181" edge="1">
          <mxGeometry width="50" height="50" relative="1" as="geometry">
            <mxPoint x="390" y="680" as="sourcePoint" />
            <mxPoint x="170" y="880" as="targetPoint" />
            <Array as="points">
              <mxPoint x="170" y="920" />
            </Array>
          </mxGeometry>
        </mxCell>
        <mxCell id="20T_Re2GiVwvicuBMbkh-181" value="if timeframe fit for VALIDZERO" style="rhombus;whiteSpace=wrap;html=1;" parent="1" vertex="1">
          <mxGeometry x="280" y="880" width="80" height="80" as="geometry" />
        </mxCell>
        <mxCell id="20T_Re2GiVwvicuBMbkh-182" value="if timeframe fit for VALIDONE" style="rhombus;whiteSpace=wrap;html=1;" parent="1" vertex="1">
          <mxGeometry x="280" y="1030" width="80" height="80" as="geometry" />
        </mxCell>
        <mxCell id="20T_Re2GiVwvicuBMbkh-183" value="" style="endArrow=classic;html=1;rounded=0;exitX=0.5;exitY=1;exitDx=0;exitDy=0;entryX=0.5;entryY=0;entryDx=0;entryDy=0;" parent="1" source="20T_Re2GiVwvicuBMbkh-181" target="20T_Re2GiVwvicuBMbkh-182" edge="1">
          <mxGeometry width="50" height="50" relative="1" as="geometry">
            <mxPoint x="540" y="980" as="sourcePoint" />
            <mxPoint x="590" y="930" as="targetPoint" />
          </mxGeometry>
        </mxCell>
        <mxCell id="20T_Re2GiVwvicuBMbkh-184" value="" style="endArrow=classic;html=1;rounded=0;exitX=0.5;exitY=1;exitDx=0;exitDy=0;entryX=0.5;entryY=0;entryDx=0;entryDy=0;" parent="1" source="20T_Re2GiVwvicuBMbkh-182" target="20T_Re2GiVwvicuBMbkh-185" edge="1">
          <mxGeometry width="50" height="50" relative="1" as="geometry">
            <mxPoint x="540" y="980" as="sourcePoint" />
            <mxPoint x="320" y="1200" as="targetPoint" />
          </mxGeometry>
        </mxCell>
        <mxCell id="20T_Re2GiVwvicuBMbkh-185" value="event = INVALID" style="rounded=0;whiteSpace=wrap;html=1;" parent="1" vertex="1">
          <mxGeometry x="260" y="1156" width="120" height="60" as="geometry" />
        </mxCell>
        <mxCell id="20T_Re2GiVwvicuBMbkh-186" value="" style="endArrow=classic;html=1;rounded=0;" parent="1" edge="1">
          <mxGeometry width="50" height="50" relative="1" as="geometry">
            <mxPoint x="170" y="920" as="sourcePoint" />
            <mxPoint x="169.09070294784578" y="1320.0907029478458" as="targetPoint" />
          </mxGeometry>
        </mxCell>
        <mxCell id="20T_Re2GiVwvicuBMbkh-187" value="return event" style="rounded=0;whiteSpace=wrap;html=1;" parent="1" vertex="1">
          <mxGeometry x="110" y="1430" width="120" height="60" as="geometry" />
        </mxCell>
        <mxCell id="20T_Re2GiVwvicuBMbkh-188" value="" style="endArrow=classic;html=1;rounded=0;exitX=1;exitY=0.5;exitDx=0;exitDy=0;" parent="1" source="20T_Re2GiVwvicuBMbkh-181" target="20T_Re2GiVwvicuBMbkh-189" edge="1">
          <mxGeometry width="50" height="50" relative="1" as="geometry">
            <mxPoint x="390" y="990" as="sourcePoint" />
            <mxPoint x="440" y="940" as="targetPoint" />
          </mxGeometry>
        </mxCell>
        <mxCell id="20T_Re2GiVwvicuBMbkh-189" value="returne VALIDZERO" style="rounded=0;whiteSpace=wrap;html=1;" parent="1" vertex="1">
          <mxGeometry x="465" y="890" width="120" height="60" as="geometry" />
        </mxCell>
        <mxCell id="20T_Re2GiVwvicuBMbkh-190" value="" style="endArrow=classic;html=1;rounded=0;exitX=1;exitY=0.5;exitDx=0;exitDy=0;" parent="1" source="20T_Re2GiVwvicuBMbkh-182" target="20T_Re2GiVwvicuBMbkh-191" edge="1">
          <mxGeometry width="50" height="50" relative="1" as="geometry">
            <mxPoint x="390" y="990" as="sourcePoint" />
            <mxPoint x="440" y="940" as="targetPoint" />
          </mxGeometry>
        </mxCell>
        <mxCell id="20T_Re2GiVwvicuBMbkh-191" value="retun VALIDONE" style="rounded=0;whiteSpace=wrap;html=1;" parent="1" vertex="1">
          <mxGeometry x="475" y="1040" width="120" height="60" as="geometry" />
        </mxCell>
        <mxCell id="20T_Re2GiVwvicuBMbkh-192" value="" style="endArrow=classic;html=1;rounded=0;exitX=0.5;exitY=1;exitDx=0;exitDy=0;" parent="1" source="20T_Re2GiVwvicuBMbkh-185" edge="1">
          <mxGeometry width="50" height="50" relative="1" as="geometry">
            <mxPoint x="390" y="1190" as="sourcePoint" />
            <mxPoint x="170" y="1250" as="targetPoint" />
            <Array as="points">
              <mxPoint x="320" y="1250" />
            </Array>
          </mxGeometry>
        </mxCell>
        <mxCell id="20T_Re2GiVwvicuBMbkh-193" value="" style="endArrow=classic;html=1;rounded=0;exitX=0.5;exitY=1;exitDx=0;exitDy=0;" parent="1" source="20T_Re2GiVwvicuBMbkh-191" edge="1">
          <mxGeometry width="50" height="50" relative="1" as="geometry">
            <mxPoint x="390" y="1190" as="sourcePoint" />
            <mxPoint x="320" y="1250" as="targetPoint" />
            <Array as="points">
              <mxPoint x="535" y="1250" />
            </Array>
          </mxGeometry>
        </mxCell>
        <mxCell id="20T_Re2GiVwvicuBMbkh-194" value="" style="endArrow=classic;html=1;rounded=0;exitX=0.5;exitY=1;exitDx=0;exitDy=0;" parent="1" source="20T_Re2GiVwvicuBMbkh-189" edge="1">
          <mxGeometry width="50" height="50" relative="1" as="geometry">
            <mxPoint x="390" y="1190" as="sourcePoint" />
            <mxPoint x="530" y="1250" as="targetPoint" />
            <Array as="points">
              <mxPoint x="525" y="1000" />
              <mxPoint x="630" y="1000" />
              <mxPoint x="630" y="1250" />
            </Array>
          </mxGeometry>
        </mxCell>
        <mxCell id="20T_Re2GiVwvicuBMbkh-195" value="" style="endArrow=classic;html=1;rounded=0;exitX=0.45;exitY=0.967;exitDx=0;exitDy=0;exitPerimeter=0;" parent="1" source="20T_Re2GiVwvicuBMbkh-177" edge="1">
          <mxGeometry width="50" height="50" relative="1" as="geometry">
            <mxPoint x="390" y="890" as="sourcePoint" />
            <mxPoint x="630" y="1000" as="targetPoint" />
            <Array as="points">
              <mxPoint x="350" y="830" />
              <mxPoint x="630" y="830" />
            </Array>
          </mxGeometry>
        </mxCell>
        <mxCell id="20T_Re2GiVwvicuBMbkh-196" value="" style="endArrow=classic;html=1;rounded=0;exitX=0.5;exitY=1;exitDx=0;exitDy=0;" parent="1" source="20T_Re2GiVwvicuBMbkh-179" edge="1">
          <mxGeometry width="50" height="50" relative="1" as="geometry">
            <mxPoint x="390" y="890" as="sourcePoint" />
            <mxPoint x="525" y="830" as="targetPoint" />
          </mxGeometry>
        </mxCell>
        <mxCell id="20T_Re2GiVwvicuBMbkh-197" value="" style="endArrow=classic;html=1;rounded=0;exitX=0.5;exitY=1;exitDx=0;exitDy=0;" parent="1" source="20T_Re2GiVwvicuBMbkh-174" edge="1">
          <mxGeometry width="50" height="50" relative="1" as="geometry">
            <mxPoint x="390" y="890" as="sourcePoint" />
            <mxPoint x="630" y="830" as="targetPoint" />
            <Array as="points">
              <mxPoint x="524" y="570" />
              <mxPoint x="630" y="570" />
            </Array>
          </mxGeometry>
        </mxCell>
        <mxCell id="20T_Re2GiVwvicuBMbkh-198" value="" style="endArrow=classic;html=1;rounded=0;exitX=0.5;exitY=1;exitDx=0;exitDy=0;" parent="1" source="20T_Re2GiVwvicuBMbkh-169" edge="1">
          <mxGeometry width="50" height="50" relative="1" as="geometry">
            <mxPoint x="390" y="390" as="sourcePoint" />
            <mxPoint x="630" y="570" as="targetPoint" />
            <Array as="points">
              <mxPoint x="524" y="390" />
              <mxPoint x="630" y="390" />
            </Array>
          </mxGeometry>
        </mxCell>
        <mxCell id="20T_Re2GiVwvicuBMbkh-199" value="Yes" style="text;html=1;align=center;verticalAlign=middle;whiteSpace=wrap;rounded=0;" parent="1" vertex="1">
          <mxGeometry x="395" y="280" width="60" height="30" as="geometry" />
        </mxCell>
        <mxCell id="20T_Re2GiVwvicuBMbkh-200" value="Yes" style="text;html=1;align=center;verticalAlign=middle;whiteSpace=wrap;rounded=0;" parent="1" vertex="1">
          <mxGeometry x="395" y="470" width="60" height="30" as="geometry" />
        </mxCell>
        <mxCell id="20T_Re2GiVwvicuBMbkh-201" value="Yes" style="text;html=1;align=center;verticalAlign=middle;whiteSpace=wrap;rounded=0;" parent="1" vertex="1">
          <mxGeometry x="400" y="620" width="60" height="30" as="geometry" />
        </mxCell>
        <mxCell id="20T_Re2GiVwvicuBMbkh-202" value="Yes" style="text;html=1;align=center;verticalAlign=middle;whiteSpace=wrap;rounded=0;" parent="1" vertex="1">
          <mxGeometry x="360" y="890" width="60" height="30" as="geometry" />
        </mxCell>
        <mxCell id="20T_Re2GiVwvicuBMbkh-203" value="Yes" style="text;html=1;align=center;verticalAlign=middle;whiteSpace=wrap;rounded=0;" parent="1" vertex="1">
          <mxGeometry x="360" y="1040" width="60" height="30" as="geometry" />
        </mxCell>
        <mxCell id="20T_Re2GiVwvicuBMbkh-204" value="No" style="text;html=1;align=center;verticalAlign=middle;whiteSpace=wrap;rounded=0;" parent="1" vertex="1">
          <mxGeometry x="110" y="350" width="60" height="30" as="geometry" />
        </mxCell>
        <mxCell id="20T_Re2GiVwvicuBMbkh-205" value="No" style="text;html=1;align=center;verticalAlign=middle;whiteSpace=wrap;rounded=0;" parent="1" vertex="1">
          <mxGeometry x="294" y="350" width="60" height="30" as="geometry" />
        </mxCell>
        <mxCell id="20T_Re2GiVwvicuBMbkh-206" value="No" style="text;html=1;align=center;verticalAlign=middle;whiteSpace=wrap;rounded=0;" parent="1" vertex="1">
          <mxGeometry x="295" y="540" width="60" height="30" as="geometry" />
        </mxCell>
        <mxCell id="20T_Re2GiVwvicuBMbkh-207" value="No" style="text;html=1;align=center;verticalAlign=middle;whiteSpace=wrap;rounded=0;" parent="1" vertex="1">
          <mxGeometry x="294" y="690" width="60" height="30" as="geometry" />
        </mxCell>
        <mxCell id="20T_Re2GiVwvicuBMbkh-208" value="No" style="text;html=1;align=center;verticalAlign=middle;whiteSpace=wrap;rounded=0;" parent="1" vertex="1">
          <mxGeometry x="260" y="960" width="60" height="30" as="geometry" />
        </mxCell>
        <mxCell id="20T_Re2GiVwvicuBMbkh-209" value="No" style="text;html=1;align=center;verticalAlign=middle;whiteSpace=wrap;rounded=0;" parent="1" vertex="1">
          <mxGeometry x="260" y="1110" width="60" height="30" as="geometry" />
        </mxCell>
        <mxCell id="20T_Re2GiVwvicuBMbkh-211" value="" style="endArrow=classic;html=1;rounded=0;exitX=0.5;exitY=1;exitDx=0;exitDy=0;" parent="1" source="20T_Re2GiVwvicuBMbkh-213" target="20T_Re2GiVwvicuBMbkh-187" edge="1">
          <mxGeometry width="50" height="50" relative="1" as="geometry">
            <mxPoint x="169" y="1400" as="sourcePoint" />
            <mxPoint x="746" y="1550" as="targetPoint" />
          </mxGeometry>
        </mxCell>
        <mxCell id="20T_Re2GiVwvicuBMbkh-213" value="lastSig = signal" style="rounded=0;whiteSpace=wrap;html=1;" parent="1" vertex="1">
          <mxGeometry x="110" y="1320" width="120" height="60" as="geometry" />
        </mxCell>
      </root>
    </mxGraphModel>
  </diagram>
</mxfile>
